<svg version="1.1" id="Layer_1" xmlns="http://www.w3.org/2000/svg" xmlns:xlink="http://www.w3.org/1999/xlink" x="0px" y="0px"
	 width="100%" viewBox="0 0 512 512" enable-background="new 0 0 512 512" xml:space="preserve">
<path fill="#000000" opacity="1.000000" stroke="none" 
	d="
M302.000000,513.000000 
	C202.690781,513.000000 103.881531,512.980835 5.072423,513.084473 
	C1.807701,513.087891 0.894267,512.646667 0.896788,509.074219 
	C1.015292,341.115265 1.016687,173.156235 0.892496,5.197323 
	C0.889724,1.449508 1.835981,0.912667 5.300733,0.914682 
	C173.093079,1.012274 340.885468,1.011378 508.677826,0.919594 
	C512.084534,0.917731 513.114746,1.368712 513.111816,5.175861 
	C512.982422,173.134781 512.985291,341.093811 513.100830,509.052765 
	C513.103271,512.581360 512.260071,513.094238 508.948975,513.088562 
	C440.132812,512.971069 371.316376,513.000000 302.000000,513.000000 
z"/>
<path fill="#171D3A" opacity="1.000000" stroke="none" 
	d="
M313.330505,472.618103 
	C301.393097,472.916992 289.728302,472.880676 278.065948,473.032532 
	C274.510681,473.078857 272.925018,471.880035 272.964386,468.136169 
	C273.100525,455.198822 272.073273,457.106537 283.789978,457.023102 
	C297.036652,456.928741 296.869263,456.998230 297.093292,443.790649 
	C297.170502,439.238861 295.856232,435.883392 292.484955,432.850189 
	C288.031616,428.843384 284.056458,424.309113 279.669678,420.222809 
	C277.059540,417.791504 277.320496,416.033691 279.770569,413.679535 
	C285.777344,407.908020 291.518341,401.860199 297.512238,396.074768 
	C299.865356,393.803467 299.772186,392.146149 297.477264,389.892365 
	C288.204010,380.785522 279.042725,371.564270 269.882660,362.342957 
	C268.069824,360.517975 266.208862,360.115936 263.595764,360.525940 
	C254.161438,362.006348 245.378540,361.123444 238.544815,353.137360 
	C234.631897,348.564636 232.337784,343.481720 233.095856,337.610809 
	C234.227005,328.850464 231.035019,322.640961 224.524643,316.753845 
	C213.785507,307.042908 203.828186,296.457764 193.706924,286.079559 
	C191.034592,283.339386 189.091003,282.910370 186.435242,285.974609 
	C183.822540,288.989075 180.976028,291.844604 177.956985,294.451172 
	C174.847198,297.136047 175.424530,299.067993 178.120712,301.714996 
	C190.011230,313.388580 201.680115,325.287781 213.551743,336.980896 
	C215.994766,339.387177 217.077179,341.909637 217.051544,345.345459 
	C216.928497,361.841675 217.146469,378.341461 216.909500,394.835205 
	C216.839767,399.689087 218.519974,401.191803 223.261337,401.089264 
	C233.676743,400.864075 232.973206,399.970367 232.998108,410.686340 
	C233.000824,411.852814 232.998413,413.019257 232.998459,414.185730 
	C232.998718,423.154999 232.998734,423.154999 241.435989,426.003052 
	C250.941376,429.211609 256.927948,437.480988 256.988098,447.583557 
	C257.028778,454.415436 256.873901,461.250519 257.034424,468.078827 
	C257.121246,471.772430 255.595932,473.050262 251.990463,473.033936 
	C231.327789,472.940430 210.664276,472.940186 190.001617,473.034058 
	C186.389023,473.050446 184.947830,471.753693 184.965149,468.071838 
	C185.062408,447.409210 185.078934,426.745453 184.952332,406.083160 
	C184.927719,402.066315 186.601212,400.943573 190.345856,400.950348 
	C201.823975,400.971039 200.979568,402.700653 200.997711,390.232941 
	C201.014938,378.401672 200.878021,366.568359 201.070374,354.740173 
	C201.132736,350.906433 199.760468,348.245972 197.135208,345.545837 
	C185.647461,333.730530 174.126266,321.905518 162.395157,310.378815 
	C143.866943,292.173401 125.724800,273.570770 106.945419,255.620010 
	C106.730072,255.414124 106.341637,255.389328 105.959892,255.253662 
	C104.366341,256.510559 105.033607,258.311066 105.032204,259.850433 
	C104.991402,304.676025 104.993622,349.501648 105.005623,394.327271 
	C105.007385,400.905975 105.096939,400.956818 111.749977,401.000061 
	C112.583130,401.005493 113.416374,400.997650 114.249527,401.003052 
	C120.901009,401.046295 120.985260,401.096344 120.991135,407.677490 
	C121.008682,427.340759 120.884689,447.005157 121.079201,466.666504 
	C121.125214,471.317535 119.839455,473.144928 114.902763,473.089386 
	C94.908745,472.864441 74.909599,472.883148 54.914978,473.079559 
	C50.276928,473.125092 48.732559,471.495544 48.933186,466.982086 
	C49.214108,460.662323 48.978687,454.320648 49.008263,447.988556 
	C49.063911,436.074341 56.847160,426.754242 68.555923,425.156097 
	C72.031082,424.681824 73.116173,423.307831 73.026344,420.075653 
	C72.896790,415.413605 73.128494,410.740723 72.970444,406.080475 
	C72.850189,402.535156 74.106789,401.044464 77.847519,400.940186 
	C89.005074,400.629028 89.001534,400.499176 89.001526,389.229431 
	C89.001472,339.404663 89.213089,289.578125 88.788200,239.756973 
	C88.719193,231.665146 90.609634,225.703934 96.766243,220.607986 
	C100.983749,217.117065 104.456787,212.740570 108.547470,209.078110 
	C111.712486,206.244415 112.078911,204.194809 108.731453,201.061172 
	C101.557854,194.345840 94.649017,187.335083 87.864548,180.223221 
	C85.329994,177.566376 83.426285,177.462082 80.206848,179.239777 
	C67.790375,186.095795 55.579872,183.565918 47.377628,172.872208 
	C41.879509,165.704010 41.220383,154.140579 46.484306,146.077484 
	C48.840240,142.468735 48.188900,140.462646 45.342747,137.688385 
	C36.276844,128.851501 36.468670,128.833252 45.501820,119.919701 
	C48.102852,117.353111 49.929268,116.987274 52.389793,119.889290 
	C54.430244,122.295876 56.912910,124.322006 59.048168,126.655327 
	C61.069115,128.863739 62.858547,128.970108 64.840065,126.664391 
	C71.471008,118.948494 79.331795,117.914757 88.118607,122.579788 
	C90.698555,123.949524 92.115860,122.403030 93.686699,120.828285 
	C103.925262,110.564316 114.171661,100.308121 124.436798,90.070732 
	C140.767548,73.784134 166.336868,73.856941 182.719025,90.224358 
	C194.271652,101.766571 205.993164,113.147926 217.265808,124.957581 
	C221.020996,128.891663 225.601959,129.457184 230.240295,130.414444 
	C233.111160,131.006943 232.892868,128.576904 232.961563,126.809578 
	C233.161865,121.656601 232.883926,116.453865 233.495636,111.354874 
	C234.592041,102.215630 238.692352,94.192497 244.141006,86.905334 
	C246.035385,84.371735 246.512283,82.661507 243.892868,80.244385 
	C240.283569,76.913841 239.999435,72.499512 242.082565,68.302528 
	C244.101730,64.234375 248.264648,64.503464 251.792603,65.331490 
	C255.382141,66.173965 257.880524,64.414406 260.709595,63.136860 
	C283.073425,53.037769 304.762665,54.400597 325.354248,67.683434 
	C352.743439,85.351151 360.487000,122.865555 346.620270,149.482147 
	C344.235870,154.058838 344.618469,156.890518 348.478088,160.098602 
	C352.050140,163.067688 355.233765,166.537399 358.379333,169.977829 
	C362.234009,174.193787 362.427429,179.740540 359.098602,183.056442 
	C356.183777,185.959976 349.431091,185.705978 345.841156,182.262558 
	C340.430878,177.073013 335.135712,171.757156 329.946655,166.346298 
	C327.777588,164.084518 326.385895,163.520294 323.432556,165.774185 
	C307.881989,177.641846 290.403900,179.763138 271.867249,174.732574 
	C268.563812,173.836060 267.247406,173.745148 266.905457,177.863327 
	C263.828918,214.917435 265.385956,252.039352 264.944366,289.130646 
	C264.890594,293.649292 265.098053,296.741913 270.876068,297.794739 
	C277.056824,298.920929 281.026520,304.858002 280.927490,311.101868 
	C280.748108,322.408752 281.877472,333.746552 280.254578,345.021484 
	C279.988495,346.869995 280.761902,348.234314 281.998352,349.470276 
	C291.426453,358.894989 300.874329,368.300201 310.249451,377.777374 
	C312.164093,379.712830 313.703888,379.889069 315.685913,377.867371 
	C321.985107,371.442169 328.342163,365.071777 334.774323,358.779907 
	C336.793884,356.804321 337.179291,354.467133 336.983002,351.920959 
	C335.657837,334.729858 350.276154,315.790283 370.231476,313.030914 
	C372.621796,312.700409 374.133728,311.364716 375.668854,309.829590 
	C384.152527,301.345612 392.689514,292.913910 401.086853,284.345398 
	C403.340149,282.046234 405.761353,281.163452 408.985748,280.917358 
	C430.825684,279.250488 450.458130,299.845001 448.977173,320.210693 
	C448.716553,323.794830 450.022858,326.417999 452.423065,329.112946 
	C460.045898,337.671753 467.275269,346.579773 474.801147,355.227112 
	C476.518585,357.200500 476.575745,358.401886 474.539825,360.080933 
	C471.471313,362.611511 469.134613,366.000183 465.163208,368.017639 
	C462.476715,370.134399 460.837708,368.641174 459.366058,366.914551 
	C450.402374,356.397400 441.456055,345.865326 432.504089,335.338226 
	C430.839050,333.380280 430.644958,331.151794 430.568268,328.804169 
	C430.432587,324.652313 430.667419,320.501953 429.691223,316.375305 
	C428.395538,310.898499 425.341034,306.686676 420.994202,303.351166 
	C416.549713,299.940704 413.049255,300.102631 408.993256,304.036865 
	C401.219971,311.576660 393.604279,319.278778 386.000641,326.989197 
	C383.310883,329.716705 380.439026,331.241180 376.478943,331.659241 
	C363.527527,333.026520 355.623566,341.651703 355.555267,354.734894 
	C355.446838,375.511200 353.600281,370.337921 367.304779,384.346161 
	C371.498840,388.633240 375.760620,392.855164 380.023560,397.074219 
	C384.587433,401.591125 388.345551,406.678619 390.357880,412.798676 
	C391.798035,417.178558 394.558929,418.695374 398.998322,418.588379 
	C406.323486,418.411865 413.661530,418.359314 420.987305,418.639374 
	C426.160095,418.837158 427.067627,419.809479 427.368713,424.892700 
	C427.546051,427.886475 427.436371,430.885803 427.350311,433.885315 
	C427.243500,437.606720 425.343994,439.261993 421.712097,439.370392 
	C416.880463,439.514618 412.048462,439.504578 407.218842,439.458923 
	C403.309814,439.421997 400.139374,440.769012 397.397797,443.553131 
	C392.956085,448.063568 388.112274,452.226562 384.033508,457.039001 
	C372.886475,470.191162 358.434601,473.258789 342.172913,471.916382 
	C333.690430,471.216125 326.276154,468.416962 319.916107,462.762817 
	C318.973511,461.924835 318.006073,460.492188 316.524902,461.255676 
	C315.142242,461.968414 315.584534,463.591888 315.469696,464.880615 
	C315.238861,467.470490 315.987030,470.303009 313.330505,472.618103 
z"/>
<path fill="#C48D4B" opacity="1.000000" stroke="none" 
	d="
M313.521973,472.930542 
	C313.056976,466.589905 313.056976,460.298859 313.056976,452.792267 
	C315.166962,454.806030 316.555817,456.090210 317.899353,457.420166 
	C336.631592,475.962860 362.451477,475.653900 380.849060,456.698944 
	C386.302429,451.080383 391.958252,445.654480 397.303772,439.936981 
	C399.446106,437.645599 401.700684,436.832428 404.757568,436.941986 
	C410.415161,437.144745 416.187317,437.666351 421.724365,436.823761 
	C428.595428,435.778137 423.876312,429.946320 424.830505,426.420258 
	C425.370117,424.426117 426.470947,420.840240 421.679932,420.950409 
	C413.187012,421.145844 404.433380,419.753082 396.269775,421.403595 
	C389.849457,422.701660 390.007996,419.749664 388.822723,415.820679 
	C386.873810,409.360413 383.300568,403.753632 378.497162,398.967010 
	C370.826080,391.322693 363.210693,383.621490 355.461029,376.057800 
	C353.645386,374.285736 352.802582,372.482117 352.962952,369.933868 
	C353.421967,362.639862 352.123474,355.263214 353.761353,348.028137 
	C356.268524,336.953186 365.103210,329.450317 376.454956,329.119476 
	C379.637390,329.026672 381.665344,327.840820 383.737885,325.732391 
	C392.263855,317.058746 401.032288,308.619720 409.422516,299.818848 
	C411.834686,297.288574 413.978973,297.161041 416.876556,298.176483 
	C426.183868,301.438049 433.506409,310.486938 432.735046,320.716644 
	C432.045868,329.856018 435.731140,336.081757 441.506042,342.214081 
	C449.360107,350.554291 456.013702,359.969757 464.508606,368.124634 
	C464.901123,401.967926 464.876343,435.753540 465.091827,469.537689 
	C465.118988,473.794800 462.662323,472.993042 460.286255,472.993195 
	C411.519806,472.996277 362.753387,472.987000 313.521973,472.930542 
z"/>
<path fill="#000000" opacity="1.000000" stroke="none" 
	d="
M104.311005,139.005692 
	C102.419884,136.298477 103.828529,134.669388 105.441002,133.059189 
	C116.157921,122.357513 126.725403,111.501175 137.624710,100.988777 
	C145.710449,93.190048 160.477173,93.349709 168.587723,101.169525 
	C177.212830,109.485451 185.525803,118.124237 194.075531,126.519737 
	C196.592957,128.991760 196.759628,130.407013 193.024246,131.522964 
	C184.816711,133.974930 178.358292,139.239853 172.422150,145.114319 
	C157.872009,159.513275 143.376251,173.969437 129.042465,188.582886 
	C126.032158,191.651978 124.121735,191.960587 121.039062,188.676895 
	C114.207619,181.400055 107.082756,174.389557 99.886620,167.468979 
	C97.235779,164.919632 96.965622,163.016373 99.864746,160.596222 
	C106.874435,154.744614 107.395027,147.392212 104.311005,139.005692 
z"/>
<path fill="#3B5363" opacity="1.000000" stroke="none" 
	d="
M335.158875,450.974976 
	C323.503052,440.987732 313.657104,429.661011 302.775818,419.391754 
	C300.835144,417.560242 301.347778,415.997498 303.033051,414.320129 
	C313.525482,403.876495 323.998657,393.413361 334.441803,382.920441 
	C336.205566,381.148224 337.733978,381.064331 339.523438,382.876282 
	C349.574371,393.053680 360.011047,402.877075 369.628296,413.447052 
	C376.966797,421.512512 376.686279,435.312103 370.140411,444.105774 
	C362.820923,453.938690 350.647156,457.539886 339.502014,453.128265 
	C338.117432,452.580200 336.816833,451.820007 335.158875,450.974976 
z"/>
<path fill="#DFAB61" opacity="1.000000" stroke="none" 
	d="
M250.974167,133.904114 
	C246.869507,120.589279 248.852066,108.628349 256.462738,97.470016 
	C258.211517,94.906044 259.352356,94.620636 261.697693,96.992439 
	C278.677307,114.163521 295.734802,131.259262 312.939087,148.204773 
	C315.697418,150.921616 314.668732,151.984177 312.207367,153.735382 
	C290.484497,169.190750 261.744446,160.084900 250.974167,133.904114 
z"/>
<path fill="#E4913C" opacity="1.000000" stroke="none" 
	d="
M332.857788,140.737366 
	C331.374237,144.434769 329.960846,142.672150 328.482025,141.188477 
	C321.897339,134.582184 315.291809,127.996651 308.695404,121.402023 
	C295.738037,108.448105 282.777008,95.497826 269.827759,82.535789 
	C265.801422,78.505493 265.766022,78.274437 271.260132,76.309593 
	C290.594086,69.395210 308.016602,72.771339 322.835358,87.011208 
	C337.201904,100.816566 340.785400,120.945351 332.857788,140.737366 
z"/>
<path fill="#000000" opacity="1.000000" stroke="none" 
	d="
M216.748016,255.748001 
	C227.169144,245.256226 237.340256,235.014450 247.501114,224.782990 
	C249.523895,226.458649 248.968658,228.071472 248.971481,229.465988 
	C249.012955,249.960114 248.959488,270.454498 249.037674,290.948425 
	C249.051132,294.476868 248.784790,297.185242 244.211227,297.314148 
	C242.110687,297.373322 239.974716,298.586792 238.502121,300.177307 
	C236.221725,302.640228 234.586761,302.222229 232.382080,299.967285 
	C223.529968,290.913330 214.568466,281.964233 205.530533,273.095490 
	C203.225662,270.833771 203.123459,269.153412 205.512115,266.923828 
	C209.285767,263.401550 212.846939,259.651611 216.748016,255.748001 
z"/>
<path fill="#E4913C" opacity="1.000000" stroke="none" 
	d="
M157.135864,281.923248 
	C141.683853,266.481079 126.542564,251.235153 111.236122,236.156906 
	C108.732651,233.690750 108.660065,232.200256 111.263199,229.869690 
	C115.104492,226.430634 118.718071,222.719681 122.239151,218.947647 
	C124.095619,216.958878 125.303368,216.701813 127.392540,218.812881 
	C143.560471,235.150070 159.801895,251.415634 176.156845,267.565369 
	C178.481125,269.860474 178.143265,271.145813 175.980133,273.105225 
	C172.774338,276.009094 169.814957,279.185028 166.750137,282.244598 
	C162.107437,286.879333 162.107239,286.879150 157.135864,281.923248 
z"/>
<path fill="#2D669E" opacity="1.000000" stroke="none" 
	d="
M221.773544,184.773560 
	C213.282501,193.264297 204.931854,201.399780 196.861099,209.804031 
	C194.116989,212.661545 192.414169,213.179596 189.361404,210.037521 
	C180.535706,200.953568 180.390701,201.090057 189.469177,192.008316 
	C202.534500,178.938278 215.698761,165.964813 228.600388,152.735184 
	C231.639160,149.619171 233.785828,149.732391 236.964142,152.302048 
	C246.141693,159.722092 246.258255,160.288605 237.916580,168.630356 
	C232.618896,173.928070 227.321198,179.225800 221.773544,184.773560 
z"/>
<path fill="#E5913C" opacity="1.000000" stroke="none" 
	d="
M74.053223,456.999268 
	C73.228363,456.999268 72.861862,457.092133 72.568680,456.984802 
	C69.847267,455.988342 64.759346,459.917664 64.919174,452.878326 
	C65.110733,444.441650 67.101631,441.185394 73.390266,441.022186 
	C77.377502,440.918701 81.377068,440.850769 85.356865,441.050568 
	C88.140182,441.190338 89.165565,440.329102 89.058044,437.437592 
	C88.854340,431.959076 89.132042,426.463165 88.947868,420.983276 
	C88.851418,418.113403 89.460609,416.953552 92.719200,416.909393 
	C105.001129,416.742920 104.999283,416.605042 104.999237,428.880707 
	C104.999214,436.694244 104.814766,444.514038 105.080948,452.318481 
	C105.204193,455.932251 104.360840,457.237640 100.476341,457.096649 
	C91.842949,456.783356 83.190353,456.999176 74.053223,456.999268 
z"/>
<path fill="#E5913C" opacity="1.000000" stroke="none" 
	d="
M208.039474,417.000671 
	C216.999207,417.001221 216.998917,417.001221 216.999435,425.701080 
	C216.999680,429.691284 217.143173,433.688263 216.952560,437.669312 
	C216.825409,440.324951 217.789749,441.153870 220.376266,441.045166 
	C224.525314,440.870728 228.690948,440.889832 232.842804,441.029358 
	C239.480591,441.252380 244.298294,450.435974 240.829483,456.104034 
	C240.055756,457.368317 238.776901,456.975281 237.682022,456.978180 
	C226.542786,457.007477 215.403183,456.957336 204.264328,457.028900 
	C202.073730,457.042969 200.933670,456.628113 200.958572,454.056854 
	C201.068008,442.752350 200.999130,431.446167 201.007462,420.140594 
	C201.011566,414.576355 205.320999,417.939026 208.039474,417.000671 
z"/>
<path fill="#E2903C" opacity="1.000000" stroke="none" 
	d="
M168.759689,237.240311 
	C158.729568,227.208923 149.009171,217.366516 139.122314,207.694244 
	C136.980392,205.598801 136.520844,204.199081 139.043716,202.182602 
	C140.853912,200.735748 142.355667,198.903992 144.001953,197.250839 
	C148.895706,192.336685 148.666672,192.602097 153.749420,197.035339 
	C157.373016,200.195862 157.124146,202.458740 153.532410,205.012070 
	C149.880371,207.608276 149.485275,210.209991 153.431656,212.900864 
	C153.837540,213.177612 154.145828,213.597504 154.499344,213.951035 
	C160.576736,220.028839 160.631470,220.090149 166.934921,214.458954 
	C168.496933,213.063538 169.544006,212.697128 170.994537,214.410065 
	C172.067780,215.677444 173.342255,216.772964 174.507248,217.964447 
	C176.601669,220.106552 179.800934,221.963745 180.476868,224.491333 
	C181.279373,227.492294 177.203293,228.931763 175.342346,231.111679 
	C174.122162,232.541000 173.808411,233.499435 175.325165,234.802780 
	C176.459381,235.777481 177.458221,236.909576 178.518707,237.970215 
	C184.560074,244.012436 184.617569,244.076736 190.952621,238.437775 
	C192.540192,237.024658 193.398422,236.975937 195.034836,238.400009 
	C203.435699,245.710907 203.483597,245.655869 195.694183,253.396729 
	C190.286804,258.770416 190.287109,258.770111 184.917603,253.399429 
	C179.615341,248.096008 174.312393,242.793289 168.759689,237.240311 
z"/>
<path fill="#2D659C" opacity="1.000000" stroke="none" 
	d="
M244.252747,185.264755 
	C246.107803,183.130005 247.714325,181.244263 249.996567,178.565369 
	C251.802444,184.612885 250.816040,189.025238 249.496185,193.405365 
	C247.579575,199.766006 243.924194,205.081284 239.322815,209.760269 
	C232.092865,217.112152 224.706528,224.311859 217.555771,231.739059 
	C215.127884,234.260803 213.461029,234.213409 211.079086,231.691620 
	C203.236191,223.388336 203.603302,226.041458 210.841537,218.678238 
	C221.800629,207.529892 232.940933,196.559662 244.252747,185.264755 
z"/>
<path fill="#2D659D" opacity="1.000000" stroke="none" 
	d="
M177.149673,164.149414 
	C182.265503,159.395737 186.360733,154.040497 191.996658,150.393539 
	C198.324356,146.298920 205.167618,143.899338 212.934280,144.111908 
	C212.827972,146.405457 211.353668,147.147476 210.355927,148.149963 
	C197.819702,160.745743 185.072250,173.137711 172.781845,185.967880 
	C169.007141,189.908356 167.315414,187.824631 164.563461,185.222260 
	C161.567078,182.388702 160.235748,180.313309 164.134079,176.988602 
	C168.669357,173.120667 172.667572,168.622986 177.149673,164.149414 
z"/>
<path fill="#E2903C" opacity="1.000000" stroke="none" 
	d="
M88.169197,149.320953 
	C83.341141,154.162506 78.796608,158.803558 74.136932,163.325958 
	C69.822876,167.512894 65.365059,167.832855 61.798267,164.395508 
	C58.066391,160.799103 58.389824,156.263397 62.827789,151.725632 
	C67.251839,147.202103 71.830444,142.828217 76.201401,138.255035 
	C77.875755,136.503220 79.047974,135.990677 80.875946,138.083496 
	C83.171104,140.711182 85.742699,143.103012 88.262192,145.526764 
	C89.514618,146.731613 90.148491,147.814224 88.169197,149.320953 
z"/>
<path fill="#E4903C" opacity="1.000000" stroke="none" 
	d="
M261.781250,313.002533 
	C264.537201,312.733856 265.046051,313.947540 265.024750,315.972473 
	C264.949432,323.133820 265.126282,330.299896 264.940186,337.457214 
	C264.827515,341.790588 261.390991,344.894775 257.200104,344.994171 
	C252.736450,345.100037 249.173080,341.989746 249.056046,337.389160 
	C248.873978,330.231659 249.057678,323.065521 248.971985,315.904419 
	C248.946854,313.803223 249.586823,312.875427 251.811218,312.970245 
	C254.970078,313.104889 258.139069,313.001617 261.781250,313.002533 
z"/>
<path fill="#181E3A" opacity="1.000000" stroke="none" 
	d="
M383.129974,369.002075 
	C378.122772,369.786255 376.736969,367.992157 376.884735,363.381683 
	C377.217255,353.005829 376.969666,352.997772 387.354706,352.997894 
	C394.505157,352.997986 401.657623,353.095520 408.804962,352.946594 
	C411.348511,352.893585 413.339447,353.524048 414.891998,355.529541 
	C415.194977,355.920929 415.643433,356.202576 415.931641,356.602081 
	C423.094940,366.532501 432.387054,371.437714 444.868134,369.018524 
	C448.097412,368.392578 449.058167,369.876099 449.080231,373.132080 
	C449.160614,385.002930 449.210358,384.196106 437.653412,385.229889 
	C426.207733,386.253693 417.269928,383.414703 410.639923,373.947876 
	C407.678162,369.718811 403.652008,368.474640 398.571045,368.909912 
	C393.618713,369.334137 388.601593,369.002106 383.129974,369.002075 
z"/>
</svg>